HIERARCHY
ROOT SpineBase
{
  OFFSET 0.000000 0.000000 0.000000
  CHANNELS 6 Xposition Yposition Zposition Zrotation Xrotation Yrotation
  JOINT SpineMid
  {
    OFFSET 0.000000 25.122937 0.000000
    CHANNELS 3 Zrotation Xrotation Yrotation
    JOINT SpineShoulder
    {
      OFFSET -0.002326 18.884879 -0.913633
      CHANNELS 3 Zrotation Xrotation Yrotation
      JOINT Neck
      {
        OFFSET -0.004373 6.344259 -0.613120
        CHANNELS 3 Zrotation Xrotation Yrotation
        JOINT Head
        {
          OFFSET 3.421728 11.455887 4.078859
          CHANNELS 3 Zrotation Xrotation Yrotation
          End Site
          {
            OFFSET 0 0 0
          }
        }
      }
      JOINT ShoulderLeft
      {
        OFFSET -12.071208 -2.102603 -8.567493
        CHANNELS 3 Zrotation Xrotation Yrotation
        JOINT ElbowLeft
        {
          OFFSET -18.675239 -10.021178 1.235390
          CHANNELS 3 Zrotation Xrotation Yrotation
          JOINT WristLeft
          {
            OFFSET 5.727726 -19.926288 -15.782412
            CHANNELS 3 Zrotation Xrotation Yrotation
            JOINT HandLeft
            {
              OFFSET 3.413133 -4.176282 -4.405357
              CHANNELS 3 Zrotation Xrotation Yrotation
              JOINT HandTipLeft
              {
                OFFSET 4.980115 -4.416298 -4.221333
                CHANNELS 3 Zrotation Xrotation Yrotation
                End Site
                {
                  OFFSET 0 0 0
                }
              }
              JOINT ThumbLeft
              {
                OFFSET -2.874809 -4.019845 2.929873
                CHANNELS 3 Zrotation Xrotation Yrotation
                End Site
                {
                  OFFSET 0 0 0
                }
              }
            }
          }
        }
      }
      JOINT ShoulderRight
      {
        OFFSET 12.413240 -3.996422 3.057003
        CHANNELS 3 Zrotation Xrotation Yrotation
        JOINT ElbowRight
        {
          OFFSET 3.820845 -24.521843 8.961538
          CHANNELS 3 Zrotation Xrotation Yrotation
          JOINT WristRight
          {
            OFFSET -1.982546 -12.231241 -18.557885
            CHANNELS 3 Zrotation Xrotation Yrotation
            JOINT HandRight
            {
              OFFSET -0.621930 -1.609705 -5.622487
              CHANNELS 3 Zrotation Xrotation Yrotation
              JOINT HandTipRight
              {
                OFFSET 0.739879 -5.543258 -6.549273
                CHANNELS 3 Zrotation Xrotation Yrotation
                End Site
                {
                  OFFSET 0 0 0
                }
              }
              JOINT ThumbRight
              {
                OFFSET 1.985062 1.837131 -3.251582
                CHANNELS 3 Zrotation Xrotation Yrotation
                End Site
                {
                  OFFSET 0 0 0
                }
              }
            }
          }
        }
      }
    }
  }
  JOINT HipLeft
  {
    OFFSET -6.221385 1.193908 -4.693075
    CHANNELS 3 Zrotation Xrotation Yrotation
    JOINT KneeLeft
    {
      OFFSET 13.523171 -0.810496 -27.382873
      CHANNELS 3 Zrotation Xrotation Yrotation
      JOINT AnkleLeft
      {
        OFFSET 2.414369 -36.430246 -0.690359
        CHANNELS 3 Zrotation Xrotation Yrotation
        JOINT FootLeft
        {
          OFFSET 7.638726 -3.040610 -0.596555
          CHANNELS 3 Zrotation Xrotation Yrotation
          End Site
          {
            OFFSET 0 0 0
          }
        }
      }
    }
  }
  JOINT HipRight
  {
    OFFSET 5.771923 1.440027 -1.321095
    CHANNELS 3 Zrotation Xrotation Yrotation
    JOINT KneeRight
    {
      OFFSET 22.149122 -6.971744 -17.839818
      CHANNELS 3 Zrotation Xrotation Yrotation
      JOINT AnkleRight
      {
        OFFSET -6.461809 -32.065258 -3.754547
        CHANNELS 3 Zrotation Xrotation Yrotation
        JOINT FootRight
        {
          OFFSET -3.570257 -1.649426 -10.844992
          CHANNELS 3 Zrotation Xrotation Yrotation
          End Site
          {
            OFFSET 0 0 0
          }
        }
      }
    }
  }
}
MOTION
Frames: 13
Frame Time: 0.033333
23.498086 41.322511 362.358379 -0.000000 0.000000 -15.703605 -0.000000 0.000000 15.703605 -0.000000 0.000000 0.000000 -0.000000 0.000000 0.000000 0.000000 0.000000 0.000000 -0.000000 0.000000 0.000000 -0.000000 0.000000 0.000000 -0.000000 0.000000 0.000000 -0.000000 0.000000 0.000000 0.000000 0.000000 0.000000 0.000000 0.000000 0.000000 -0.000000 0.000000 0.000000 -0.000000 0.000000 0.000000 -0.000000 0.000000 0.000000 -0.000000 0.000000 0.000000 0.000000 0.000000 0.000000 0.000000 0.000000 0.000000 -0.000000 0.000000 15.703605 -0.000000 0.000000 0.000000 -0.000000 0.000000 0.000000 0.000000 0.000000 0.000000 -0.000000 0.000000 15.703605 -0.000000 0.000000 0.000000 -0.000000 0.000000 0.000000 0.000000 0.000000 0.000000
23.491945 41.339306 362.334551 -0.162166 -0.264722 -14.973688 0.088263 0.297632 14.973084 -0.000000 0.000000 0.000000 -0.000000 0.000000 0.000000 0.000000 0.000000 0.000000 -0.665603 -1.199214 2.119961 1.202096 2.414722 -2.140774 -3.474403 -1.435433 3.034564 3.676230 1.035389 -2.506553 0.000000 0.000000 0.000000 0.000000 0.000000 0.000000 -0.000000 0.000000 0.000000 2.615013 0.219573 -4.010467 -1.412277 3.130699 -1.756719 1.687034 -5.122681 2.553199 0.000000 0.000000 0.000000 0.000000 0.000000 0.000000 0.088263 0.297632 14.973084 -0.000000 0.000000 0.000000 -1.963018 0.279427 1.140452 0.000000 0.000000 0.000000 0.088263 0.297632 14.973084 -0.000000 0.000000 0.000000 0.020202 0.850856 -1.883324 0.000000 0.000000 0.000000
23.499109 41.353867 362.320477 -0.293522 -0.518336 -14.333353 0.156074 0.574862 14.331242 -0.000000 0.000000 0.000000 -0.771340 0.292186 0.188782 0.000000 0.000000 0.000000 -1.178853 -2.214708 3.874648 2.248878 4.415255 -3.905173 -6.531276 -3.225530 5.245025 7.018187 2.132873 -4.508029 0.000000 0.000000 0.000000 0.000000 0.000000 0.000000 -0.000000 0.000000 0.000000 4.840260 0.384570 -7.429514 -2.663312 4.086543 -2.653022 3.166362 -7.600147 4.539814 0.000000 0.000000 0.000000 0.000000 0.000000 0.000000 0.156074 0.574862 14.331242 -0.000000 0.000000 0.000000 -3.536540 0.575254 2.335561 0.000000 0.000000 0.000000 -0.450036 -0.133561 14.589585 0.765023 0.532899 -0.259567 0.042155 1.560513 -3.356798 0.000000 0.000000 0.000000
23.519577 41.366194 362.316158 -0.393999 -0.760750 -13.778053 0.201509 0.832685 13.773973 -0.417609 -0.707341 -0.043398 -0.671326 1.140466 0.312549 0.000000 0.000000 0.000000 -1.136702 -2.325982 5.322365 3.090296 6.040025 -5.269358 -9.096258 -5.334966 6.541386 9.896869 3.409648 -5.939331 0.000000 0.000000 0.000000 0.000000 0.000000 0.000000 0.417105 0.707639 0.038245 6.616392 0.565957 -10.166720 -3.510389 3.379649 -3.143308 4.140995 -8.083051 5.981623 0.000000 0.000000 0.000000 0.000000 0.000000 0.000000 0.201509 0.832685 13.773973 -0.000000 0.000000 0.000000 -4.685813 0.895843 3.567274 0.000000 0.000000 0.000000 -0.614605 -0.108008 14.110128 0.960981 -0.321505 -0.122025 0.118817 3.166170 -4.641783 0.000000 0.000000 0.000000
23.553351 41.376287 362.321592 -0.463547 -0.991886 -13.304029 -0.110133 0.150070 13.275451 0.031207 -0.101086 -0.024039 -0.857023 1.493748 0.385581 0.000000 0.000000 0.000000 -1.305315 -2.723367 6.368554 3.687002 7.323359 -6.215201 -11.132933 -7.731011 6.858284 12.203131 4.978473 -6.747126 0.000000 0.000000 0.000000 0.000000 0.000000 0.000000 0.504245 0.922036 0.045345 7.921985 0.822886 -12.187055 -3.807656 1.323288 -3.508470 4.484289 -6.947132 6.957657 0.000000 0.000000 0.000000 0.000000 0.000000 0.000000 0.222910 1.071918 13.297931 -0.783076 0.273316 0.034835 -4.605108 0.981426 4.760102 0.000000 0.000000 0.000000 -0.737007 -0.023058 13.677288 1.093107 -0.365743 -0.125492 0.150697 3.769197 -5.348385 0.000000 0.000000 0.000000
23.600429 41.384147 362.336781 -0.502135 -1.211672 -12.908275 -0.151484 0.170918 12.875528 0.045325 -0.113490 -0.026713 -1.025816 1.834405 0.442426 0.000000 0.000000 0.000000 -1.391317 -2.920642 7.054361 4.009065 8.292425 -6.729595 -12.635521 -10.392504 6.142513 13.836510 6.935497 -6.869109 0.000000 0.000000 0.000000 0.000000 0.000000 0.000000 0.565272 1.125296 0.049901 8.760252 1.194828 -13.493788 -3.508838 -1.927078 -3.876922 4.136295 -4.350814 7.592440 0.000000 0.000000 0.000000 0.000000 0.000000 0.000000 0.160126 0.968406 12.138818 -0.868121 0.429125 0.796779 -4.644619 1.516713 6.024471 0.000000 0.000000 0.000000 -0.816331 0.119957 13.287969 1.131585 -0.372804 -0.110290 0.163091 4.145189 -5.640087 0.000000 0.000000 0.000000
23.718746 41.384383 362.369345 -0.454692 -1.463691 -12.459571 -0.242800 0.152551 12.425481 0.056857 -0.152982 -0.028506 -1.093484 2.372008 0.421549 0.000000 0.000000 0.000000 -0.374346 -2.783057 7.581343 3.608360 10.826347 -6.803247 -14.556853 -17.988868 0.655111 14.207773 11.558197 -5.172685 0.000000 0.000000 0.000000 0.000000 0.000000 0.000000 0.600680 1.415980 0.051666 8.956091 1.989702 -13.837276 -1.999546 -8.763428 -4.308892 2.152282 2.344273 8.081244 0.000000 0.000000 0.000000 0.000000 0.000000 0.000000 -0.030766 0.831551 11.869441 -0.920389 0.396215 0.602598 -5.009083 2.839996 9.102187 0.000000 0.000000 0.000000 -0.641563 0.667969 12.737339 0.643262 -0.361058 -0.033129 0.740945 2.878513 -6.514907 0.000000 0.000000 0.000000
23.802014 41.384988 362.401382 -0.424864 -1.686927 -12.062186 -0.307094 0.158247 12.027459 0.074692 -0.168114 -0.028938 -1.147253 2.877392 0.374556 0.000000 0.000000 0.000000 -0.673497 -2.465142 7.333043 2.968627 10.605151 -5.843484 -12.799203 -20.452774 -4.354999 11.716174 14.827673 -1.071631 0.000000 0.000000 0.000000 0.000000 0.000000 0.000000 0.615863 1.636803 0.051921 9.552490 2.673047 -14.776733 -0.967838 -14.123768 -4.417272 0.386293 7.884249 9.117950 0.000000 0.000000 0.000000 0.000000 0.000000 0.000000 -0.204146 0.653504 11.604577 -1.198676 0.382964 0.463442 -3.491624 2.165985 5.667795 0.000000 0.000000 0.000000 -0.622641 0.963098 12.254179 0.532839 -0.283018 0.029041 0.003087 3.776327 -3.791566 0.000000 0.000000 0.000000
23.878269 41.379953 362.460536 -0.380407 -1.878119 -11.936266 -0.364343 0.154771 11.902314 0.095785 -0.161325 -0.027983 -1.262978 3.149441 0.393723 0.000000 0.000000 0.000000 -1.427554 -1.951124 6.561483 3.289945 9.030768 -5.276113 -14.456735 -20.246387 -2.986957 12.463981 14.365433 -2.461098 0.000000 0.000000 0.000000 0.000000 0.000000 0.000000 0.607387 1.813344 0.050414 10.286494 3.224887 -15.909178 -0.327801 -17.727021 -4.238570 -0.780103 12.478221 9.730830 0.000000 0.000000 0.000000 0.000000 0.000000 0.000000 -0.422599 0.314110 11.661666 -1.122613 0.491479 0.268667 -2.496912 3.683011 8.583113 0.000000 0.000000 0.000000 -0.806928 1.014075 12.130458 0.541658 -0.309693 0.071461 -0.125000 4.464640 -3.338026 0.000000 0.000000 0.000000
23.910043 41.383832 362.512312 -0.358142 -1.984491 -12.098782 -0.395455 0.160233 12.065398 0.114159 -0.120779 -0.026669 -1.419100 3.098080 0.480427 0.000000 0.000000 0.000000 -1.306116 -1.552918 5.979413 1.201397 6.598998 -3.894372 -8.584807 -13.413400 -1.969246 8.123142 10.726927 -0.062332 0.000000 0.000000 0.000000 0.000000 0.000000 0.000000 0.595348 1.866373 0.049202 10.879639 3.518987 -16.813130 0.046005 -19.829744 -4.041449 -0.671924 14.801604 9.141165 0.000000 0.000000 0.000000 0.000000 0.000000 0.000000 -0.480499 0.364820 11.895687 -0.929555 0.236819 0.169036 -2.393163 6.660498 15.795385 0.000000 0.000000 0.000000 -0.864479 1.091558 12.278026 0.402429 -0.623628 0.172326 0.231939 4.492906 -4.028830 0.000000 0.000000 0.000000
23.928270 41.392958 362.539031 -0.358758 -2.023791 -12.287584 -0.376769 0.225857 12.255556 0.142799 -0.031387 -0.022197 -1.666945 2.666358 0.634954 0.000000 0.000000 0.000000 -1.493700 -1.289269 5.280053 -1.745775 2.421621 -2.118597 1.218017 -0.204800 -0.773063 2.487052 4.655945 2.396082 0.000000 0.000000 0.000000 0.000000 0.000000 0.000000 0.534507 1.754878 0.044746 11.119013 3.529113 -17.173787 0.110742 -20.012420 -4.509072 -3.080858 16.521678 12.337944 0.000000 0.000000 0.000000 0.000000 0.000000 0.000000 -0.440076 0.603951 12.183637 -0.323127 -0.190767 0.026700 -4.478052 12.142972 30.966098 0.000000 0.000000 0.000000 -0.874889 1.099722 12.390491 0.250598 -0.794113 0.306393 0.787273 4.524304 -6.061945 0.000000 0.000000 0.000000
23.959471 41.407511 362.553922 -0.336620 -2.018656 -12.603706 -0.346557 0.353690 12.575590 0.166687 0.088830 -0.015527 -1.979815 1.949020 0.829441 0.000000 0.000000 0.000000 -1.835736 -1.183062 4.595816 -2.767374 -1.105896 -1.665711 4.959068 8.306255 0.972798 -0.100605 0.046259 1.478058 0.000000 0.000000 0.000000 0.000000 0.000000 0.000000 0.429818 1.509440 0.036964 10.737289 3.329802 -16.592592 -0.010248 -18.963697 -4.927286 -3.023980 13.461436 13.128668 0.000000 0.000000 0.000000 0.000000 0.000000 0.000000 -0.462589 0.596091 12.485366 0.305348 -0.225710 0.021325 -5.466550 15.299839 39.384708 0.000000 0.000000 0.000000 -0.797231 1.197952 12.657281 0.151760 -0.816976 0.338917 0.770325 5.183907 -7.178999 0.000000 0.000000 0.000000
23.990067 41.424168 362.562700 -0.334724 -1.996557 -12.995323 -0.316777 0.430205 12.969191 0.175277 0.156949 -0.011949 -2.114102 1.389566 0.957771 0.000000 0.000000 0.000000 -2.344780 -1.029832 3.951956 -2.820141 -5.592868 -2.282788 5.544828 19.829128 6.838625 -1.826058 -7.251394 -3.543961 0.000000 0.000000 0.000000 0.000000 0.000000 0.000000 0.370427 1.349508 0.032403 11.602292 3.228001 -17.894331 -0.465315 -17.805313 -5.521930 -3.242080 13.088586 14.579991 0.000000 0.000000 0.000000 0.000000 0.000000 0.000000 -0.475264 0.527608 12.984452 0.797012 -0.187712 -0.100212 -8.915507 15.781560 44.574087 0.000000 0.000000 0.000000 -0.924121 1.106167 13.290936 0.284423 -0.954320 0.132097 1.188986 5.072165 -9.175022 0.000000 0.000000 0.000000
